# AST/ASF file generated using VICON BodyLanguage
# -----------------------------------------------
:version 1.10
:name VICON
:units
  mass 1.0
  length 0.45
  angle deg
:documentation
   .ast/.asf automatically generated from VICON data using
   VICON BodyBuilder and BodyLanguage model FoxedUp or BRILLIANT.MOD
:root
   order TX TY TZ RX RY RZ
   axis XYZ
   position 0 0 0  
   orientation 0 0 0 
:bonedata
  begin
     id 1 
     name lhipjoint
     direction 0.522423 -0.726805 0.445902 
     length 2.25074 
     axis 0 0 0  XYZ
  end
  begin
     id 2 
     name lfemur
     direction 0.34202 -0.939693 0  
     length 6.54609  
     axis 0 0 20  XYZ
    dof rx ry rz
    limits (-160.0 20.0)
           (-70.0 70.0)
           (-60.0 70.0)
  end
  begin
     id 3 
     name ltibia
     direction 0.34202 -0.939693 0   
     length 7.7528   
     axis 0 0 20   XYZ
    dof rx
    limits (-10.0 170.0)
  end
  begin
     id 4 
     name lfoot
     direction 0.143696 -0.394801 0.90746   
     length 1.73269   
     axis -90 7.62852e-016 20   XYZ
    dof rx rz
    limits (-45.0 90.0)
           (-70.0 20.0)
  end
  begin
     id 5 
     name ltoes
     direction 1.53633e-011 -4.21912e-011 1   
     length 0.858383   
     axis -90 7.62852e-016 20   XYZ
    dof rx
    limits (-90.0 20.0)
  end
  begin
     id 6 
     name rhipjoint
     direction -0.515943 -0.73016 0.447961   
     length 2.2404  
     axis 0 0 0  XYZ 
  end
  begin
     id 7 
     name rfemur
     direction -0.34202 -0.939693 0   
     length 6.84377   
     axis 0 0 -20   XYZ
    dof rx ry rz
    limits (-160.0 20.0)
           (-70.0 70.0)
           (-70.0 60.0)
  end
  begin
     id 8 
     name rtibia
     direction -0.34202 -0.939693 0   
     length 7.57596   
     axis 0 0 -20   XYZ
    dof rx
    limits (-10.0 170.0)
 end
 begin
     id 9 
     name rfoot
     direction -0.0999372 -0.274575 0.956358   
     length 1.78783  
     axis -90 -7.62852e-016 -20   XYZ
    dof rx rz
    limits (-45.0 90.0)
           (-20.0 70.0)
  end
  begin
     id 10 
     name rtoes
     direction -1.53535e-011 -4.21895e-011 1   
     length 0.898614   
     axis -90 -7.62852e-016 -20   XYZ
    dof rx
    limits (-90.0 20.0)
  end
  begin
     id 11 
     name lowerback
     direction -0.011775 0.996164 -0.0867116   
     length 1.91499   
     axis 0 0 0   XYZ
    dof rx ry rz
    limits (-20.0 45.0)
           (-30.0 30.0)
           (-30.0 30.0)
  end
  begin
     id 12 
     name upperback
     direction -0.00189771 0.999673 -0.0254833   
     length 1.92213   
     axis 0 0 0   XYZ
    dof rx ry rz
    limits (-20.0 45.0)
           (-30.0 30.0)
           (-30.0 30.0)
  end
  begin
     id 13 
     name thorax
     direction 0.00335995 0.999878 0.0152401   
     length 1.93138   
     axis 0 0 0   XYZ
    dof rx ry rz
    limits (-20.0 45.0)
           (-30.0 30.0)
           (-30.0 30.0)
  end
  begin
     id 14 
     name lowerneck
     direction 0.00233191 0.998509 0.0545404   
     length 1.59408   
     axis 0 0 0   XYZ
    dof rx ry rz
    limits (-20.0 45.0)
           (-30.0 30.0)
           (-30.0 30.0)
  end
  begin
     id 15 
     name upperneck
     direction 0.07881 0.9956 -0.0506934   
     length 1.59344   
     axis 0 0 0   XYZ
    dof rx ry rz
    limits (-20.0 45.0)
           (-30.0 30.0)
           (-30.0 30.0)
  end
  begin
     id 16
     name head
     direction 0.0261681 0.999378 -0.0236299  
     length 1.60935  
     axis 0 0 0   XYZ
    dof rx ry rz
    limits (-20.0 45.0)
           (-30.0 30.0)
           (-30.0 30.0)
  end
  begin
     id 17 
     name lclavicle
     direction 0.96643 0.252035 0.0499195  
     length 3.82153  
     axis 0 0 0   XYZ
    dof ry rz
    limits (-20.0 10.0)
           (0.0 20.0)
  end
  begin
     id 18 
     name lhumerus
     direction 1 -4.48967e-011 -2.01614e-018   
     length 4.87796   
     axis 180 -30 -90   XYZ
    dof rx ry rz
    limits (-60.0 90.0)
           (-90.0 90.0)
           (-90.0 90.0)
  end
  begin
     id 19
     name lradius
     direction 1 -4.48958e-011 3.1409e-027   
     length 3.23169   
     axis 180 -30 -90   XYZ
    dof rx
    limits (-10.0 170.0)
  end
  begin
     id 20
     name lwrist
     direction 1 -4.48924e-011 1.0365e-027   
     length 1.61584   
     axis -2.56395e-016 90 90   XYZ
    dof ry
    limits (-180.0 0.0)
 end
  begin
     id 21 
     name lhand
     direction 1 -4.49055e-011 2.09488e-027   
     length 0.731324   
     axis -1.32723e-015 90 90   XYZ
    dof rx rz
    limits (-90.0 90.0)
           (-45.0 45.0)
  end
  begin
     id 22 
     name lfingers
     direction 1 -4.48935e-011 4.14981e-027   
     length 0.589612   
     axis -2.6545e-015 90 90   XYZ
    dof rx
    limits (0.0 90.0)
  end
  begin
     id 23
     name lthumb
     direction 0.707107 -6.35097e-011 0.707107   
     length 0.846569   
     axis -90 45 5.05613e-014   XYZ
    dof rx rz
    limits (-45.0 45.0)
           (-45.0 45.0)
  end
  begin
     id 24 
     name rclavicle
     direction -0.979337 0.201016 0.0221522   
     length 3.73827  
     axis 0 0 0   XYZ 
    dof ry rz
    limits (-10.0 20.0)
           (-20.0 0.0)
  end
  begin
     id 25 
     name rhumerus
     direction -1 -4.48971e-011 1.65907e-027  
     length 4.9143   
     axis 180 30 90   XYZ
    dof rx ry rz
    limits (-90.0 60.0)
           (-90.0 90.0)
           (-90.0 90.0)
  end
  begin
     id 26 
     name rradius
     direction -1 -4.4894e-011 2.17871e-028   
     length 3.29093   
     axis 180 30 90   XYZ
    dof rx
    limits (-10.0 170.0)
  end
  begin
     id 27 
     name rwrist
     direction -1 -4.48971e-011 1.04038e-027   
     length 1.64546   
     axis -2.56395e-016 -90 -90   XYZ
    dof ry
    limits (-180.0 0.0)
  end
  begin
     id 28
     name rhand
     direction -1 -4.49017e-011 2.08843e-027   
     length 0.54512   
     axis -1.32723e-015 -90 -90   XYZ
    dof rx rz
    limits (-90.0 90.0)
           (-45.0 45.0)
  end
  begin
     id 29
     name rfingers
     direction -1 -4.48918e-011 4.1439e-027   
     length 0.43949   
     axis -2.6545e-015 -90 -90   XYZ
    dof rx
    limits (0.0 90.0)
  end
  begin
     id 30
     name rthumb
     direction -0.707107 -6.35065e-011 0.707107   
     length 0.631022   
     axis -90 -45 -5.05613e-014   XYZ
    dof rx rz
    limits (-45.0 45.0)
           (-45.0 45.0)
  end
:hierarchy
  begin
    root lhipjoint rhipjoint lowerback
    lhipjoint lfemur
    lfemur ltibia
    ltibia lfoot
    lfoot ltoes
    rhipjoint rfemur
    rfemur rtibia
    rtibia rfoot
    rfoot rtoes
    lowerback upperback
    upperback thorax
    thorax lowerneck lclavicle rclavicle
    lowerneck upperneck
    upperneck head
    lclavicle lhumerus
    lhumerus lradius
    lradius lwrist
    lwrist lhand lthumb
    lhand lfingers
    rclavicle rhumerus
    rhumerus rradius
    rradius rwrist
    rwrist rhand rthumb
    rhand rfingers
  end

#!OML:ASF H:\BreakDance\Project 1\Capture day 1\Session 1\Male.ASF
:FULLY-SPECIFIED
:DEGREES
4359
root -0.0873047 15.9648 1.13192 728.28 -97.393 -727.001
lowerback -2.50269 1.50186 -2.01457
upperback 2.95404 2.16052 -3.68694
thorax 4.52625 1.03674 -2.55109
lowerneck -8.92751 -0.0688059 6.32469
upperneck 3.64794 -0.875674 0.304473
head 2.71195 -0.339461 -1.05299
rclavicle 1.59028e-015 -7.95139e-015
rhumerus -30.0973 21.4618 -94.4765
rradius 76.3137
rwrist 4.09546
rhand -13.1812 -386.766
rfingers 7.12502
rthumb 12.9185 1383.65
lclavicle 1.59028e-015 -7.95139e-015
lhumerus -387.627 -31.0179 443.652
lradius 67.7957
lwrist -0.878162
lhand -22.5966 -25.0264
lfingers 7.12502
lthumb 3.83263 4.91892
rfemur -20.2558 7.73502 2.54141
rtibia 35.305
rfoot -25.1561 -1.20288
rtoes 20.7558
lfemur 880.925 174.269 532.194
ltibia 39.618
lfoot -29.4076 10.1982
ltoes -39.2263
4360
root -0.095514 15.9715 1.12754 727.894 -97.7961 -726.565
lowerback -2.68881 1.45105 -2.04998
upperback 2.89387 2.10069 -3.63835
thorax 4.56412 1.0057 -2.4806
lowerneck -9.0845 -0.170848 6.32439
upperneck 3.91161 -1.05179 0.603677
head 2.82579 -0.410122 -0.967425
rclavicle 1.66979e-014 -3.65764e-014
rhumerus -30.7574 22.0284 -95.0664
rradius 75.9255
rwrist 4.27168
rhand -13.1709 -387.135
rfingers 7.12502
rthumb 12.9285 1383.29
lclavicle 1.66979e-014 -3.65764e-014
lhumerus -388.617 -29.7744 444.13
lradius 67.4353
lwrist -0.519267
lhand -22.8766 -25.5941
lfingers 7.12502
lthumb 3.56223 4.35593
rfemur -20.3163 7.71677 2.56034
rtibia 35.2117
rfoot -25.107 -1.85457
rtoes 21.6837
lfemur 881.212 174.663 532.211
ltibia 39.3303
lfoot -29.0229 10.485
ltoes -38.8291
4361
root -0.104187 15.9776 1.12374 727.64 -98.1714 -726.286
lowerback -2.87144 1.38974 -2.06759
upperback 2.85969 2.02677 -3.60071
thorax 4.628 0.96812 -2.43276
lowerneck -9.1687 -0.262489 6.30144
upperneck 4.06294 -1.20852 0.949592
head 2.88925 -0.472869 -0.86002
rclavicle -3.27001e-014 1.74931e-014
rhumerus -31.3188 22.5781 -95.6467
rradius 75.4752
rwrist 4.44352
rhand -13.063 -387.618
rfingers 7.12502
rthumb 13.0325 1382.81
lclavicle -3.27001e-014 1.74931e-014
lhumerus -389.472 -28.5497 444.531
lradius 66.9233
lwrist -0.148674
lhand -23.1432 -26.0551
lfingers 7.12502
lthumb 3.30481 3.89899
rfemur -20.3442 7.67764 2.56647
rtibia 35.1135
rfoot -24.957 -2.6322
rtoes 22.8284
lfemur 881.503 175.074 532.209
ltibia 39.0606
lfoot -28.5834 10.8485
ltoes -38.3254
4362
root -0.113245 15.9832 1.1201 727.602 -98.5374 -726.244
lowerback -3.0527 1.32186 -2.09997
upperback 2.86067 1.94572 -3.57264
thorax 4.72772 0.92616 -2.38744
lowerneck -9.22315 -0.340246 6.27071
upperneck 4.11659 -1.34342 1.31058
head 2.91521 -0.527207 -0.744248
rclavicle 1.39149e-015 1.74931e-014
rhumerus -31.7652 23.096 -96.2017
rradius 74.9828
rwrist 4.63561
rhand -12.835 -388.158
rfingers 7.12502
rthumb 13.2522 1382.28
lclavicle 1.39149e-015 1.74931e-014
lhumerus -390.164 -27.3399 444.859
lradius 66.2659
lwrist 0.210198
lhand -23.3606 -26.3913
lfingers 7.12502
lthumb 3.09483 3.56604
rfemur -20.3589 7.60867 2.54293
rtibia 35.0145
rfoot -24.6791 -3.49513
rtoes 24.1405
lfemur 881.802 175.48 532.172
ltibia 38.8079
lfoot -28.126 11.3448
ltoes -37.7897
4363
root -0.123517 15.9883 1.11631 727.935 -98.9071 -726.606
lowerback -3.24661 1.25356 -2.18173
upperback 2.90505 1.86854 -3.56137
thorax 4.87951 0.883867 -2.33188
lowerneck -9.27875 -0.403429 6.24033
upperneck 4.09451 -1.45729 1.66764
head 2.91678 -0.57358 -0.628382
rclavicle -3.75703e-014 -7.95139e-016
rhumerus -32.0914 23.5533 -96.718
rradius 74.4585
rwrist 4.90989
rhand -12.4814 -388.731
rfingers 7.12502
rthumb 13.593 1381.73
lclavicle -3.75703e-014 -7.95139e-016
lhumerus -390.692 -26.1571 445.127
lradius 65.4854
lwrist 0.533954
lhand -23.5058 -26.5921
lfingers 7.12502
lthumb 2.95463 3.36719
rfemur -20.3611 7.46471 2.45677
rtibia 34.919
rfoot -24.2714 -4.34415
rtoes 25.4454
lfemur 882.124 175.866 532.061
ltibia 38.568
lfoot -27.707 11.9769
ltoes -37.3146
